<?xml version="1.0" encoding="utf-8"?>
<!-- Generator: Adobe Illustrator 23.0.3, SVG Export Plug-In . SVG Version: 6.00 Build 0)  -->
<svg version="1.1" id="Layer_1" xmlns="http://www.w3.org/2000/svg" xmlns:xlink="http://www.w3.org/1999/xlink" x="0px" y="0px"
	 viewBox="0 0 50 50" style="enable-background:new 0 0 50 50;" xml:space="preserve">
<style type="text/css">
	.st0{fill:#E5E5E5;}
	.st1{fill:#59B4D9;}
	.st2{fill:#1E1E1E;}
	.st3{fill:#A0A1A2;}
	.st4{opacity:0.85;fill:#3E3E3E;enable-background:new    ;}
	.st5{fill:#FFFFFF;}
	.st6{fill:#DD5900;}
</style>
<path class="st0" d="M25.2,24.5c-0.2,0-0.3-0.1-0.5-0.1c-10.3,0-13.8,4.1-13.8,4.1c10.1,6.1,13.8,19.1,13.8,19.1s0.2-0.5,0.5-1.2
	c0.3,0.7,0.5,1.2,0.5,1.2s3.8-13,13.8-19.1c0,0-3.6-4.1-13.8-4.1C25.5,24.5,25.3,24.5,25.2,24.5"/>
<path class="st1" d="M21.6,44c-0.4-0.1-9.1-1.8-11-9.2c-0.1-0.3,0-0.7,0.3-0.8c0.3-0.2,0.6-0.1,0.9,0.1c0.1,0,4.5,4.4,8.3,4.4
	c0.3,0,0.6,0.2,0.7,0.4l1.7,4.1c0.1,0.2,0.1,0.5-0.1,0.7C22.1,44,21.8,44,21.6,44"/>
<path class="st1" d="M37.3,33.5c0,0-3.7,4.6-7.1,5c-0.3,0-0.5,0.2-0.6,0.5l-1.1,4c-0.1,0.3,0,0.5,0.2,0.7c0.2,0.2,0.5,0.2,0.7,0.2
	c0.3-0.1,8.2-2.8,9.1-9.9c0-0.3-0.1-0.6-0.4-0.7C37.8,33.2,37.5,33.3,37.3,33.5"/>
<polygon class="st2" points="29,40.1 30.1,48 20,48 21.1,40.1 "/>
<path class="st1" d="M24.6,48.2c-2.8-11.1-6.9-15.1-11.9-25.9C7.9,11.8,15.7,1.5,25.7,1.8c10,0.2,17.3,10.8,12,21.1
	C32.2,33.4,27.9,37.3,24.6,48.2"/>
<path class="st2" d="M21.1,19.7c0,0.9-0.5,1.7-1,1.6c-0.5,0-0.9-0.8-0.9-1.7c0-0.9,0.5-1.6,1-1.6C20.7,18,21.1,18.8,21.1,19.7"/>
<path class="st2" d="M31,19.9c0,0.9-0.5,1.6-1,1.6c-0.5,0-0.9-0.8-0.9-1.7c0-0.9,0.4-1.6,1-1.6C30.6,18.2,31,19,31,19.9"/>
<path class="st3" d="M30.2,33.8c-2.9,3.3-4.3,7.8-5,10.8c-0.7-3-2.1-7.5-5-10.8c0,0-4.7-5-9.2-5c0,0,12.4,11.7,13.5,19.1h0.1h1.1
	h0.1c1.2-7.4,13.5-19.1,13.5-19.1C34.8,28.8,30.2,33.8,30.2,33.8z"/>
<path class="st4" d="M34.3,24.4c0-0.8-17.8-1.2-17.9-0.4c0,0.6,2,3.1,4.9,4.7c1.1-0.3,2.4-0.4,3.8-0.2c1.2,0.2,2.2,0.5,3,1
	C31.8,28.3,34.3,25,34.3,24.4z"/>
<path class="st2" d="M26.1,25.2c-0.9-0.1-1,0.6-0.9,1.5c0,0.8,0.1,1.1-0.3,1.1c-0.4,0-0.9-0.2-0.4-1.1c0.5-0.9,0-2.1-1.8-1.1
	c-1.5,0.9-1.3,2.3-1.1,2.9c1-0.3,2.3-0.3,3.6-0.1c1.2,0.2,2.2,0.5,3,1c0.1,0,0.3-0.1,0.4-0.2c0,0,0-0.1,0-0.1
	C29.6,26.8,27,25.3,26.1,25.2z"/>
<path class="st5" d="M27.2,25.4c0.9,0,1.7-0.7,1.8-1.7c-1.1-0.1-2.4-0.1-3.6-0.1C25.4,24.6,26.2,25.4,27.2,25.4z"/>
<path class="st5" d="M23.1,25.3c1,0,1.8-0.7,1.9-1.7c-0.9,0-1.9,0-2.8,0c-0.3,0-0.6,0-0.8,0C21.5,24.5,22.2,25.3,23.1,25.3z"/>
<path class="st6" d="M21.4,28.6c1.3,0.7,2.7,1.2,4.2,1.2c0.9,0,1.8-0.1,2.6-0.4c-0.8-0.5-1.8-0.8-3-1C23.8,28.2,22.4,28.3,21.4,28.6
	z"/>
</svg>
