<svg id="Layer_1" data-name="Layer 1" xmlns="http://www.w3.org/2000/svg" viewBox="0 0 100 101.3"><defs><style>.cls-1{fill:#ebd417;}.cls-2{fill:#fff;opacity:0.38;}.cls-3{fill:#2d3239;}.cls-4{isolation:isolate;}.cls-5{fill:none;stroke:#2d3239;stroke-miterlimit:10;stroke-width:3px;}</style></defs><title>Artboard 1</title><g id="Layer_2" data-name="Layer 2"><polygon class="cls-1" points="79.21 72.19 50.82 88.75 21.91 73.09 21.4 40.88 49.8 24.32 78.7 39.97 79.21 72.19"/><polygon class="cls-2" points="72.31 69.44 50 86.02 50 32.26 74.83 40.19 72.31 69.44"/></g><g id="Layer_1-2" data-name="Layer 1"><path class="cls-3" d="M94,6.4a4.15,4.15,0,0,0-3.79-1.5L72.24,6.7a13.32,13.32,0,0,0-9.57,4c-3.89,4-4.89,9.67-5.19,13l-1.69-.3L53.4,23c-1.1-.1-2.29-.1-3.39-.1a48.82,48.82,0,0,0-7.68.6c-.3-3.29-1.29-9-5.18-13a13.32,13.32,0,0,0-9.57-4L9.64,4.8A4.32,4.32,0,0,0,6.05,6.4a4.24,4.24,0,0,0-.9,3.88A13.32,13.32,0,0,0,16.72,20a4.09,4.09,0,0,0,1.89-.2,16.92,16.92,0,0,1,4.29-.59c3.19,0,6.48,1,7.17,7.27-.79.2-1.59.5-2.49.7-2.39.7-4.88,1.49-7.37,2.09A9.75,9.75,0,0,0,13,39.59l3.49,29.7A14.25,14.25,0,0,0,22,78.46l21.93,15a11.08,11.08,0,0,0,6,1.8,10.29,10.29,0,0,0,6-1.8l21.93-15a13.63,13.63,0,0,0,5.48-9.17c2.59-22.42,3.29-28.11,3.49-29.7h0c1.1-9.07-8.77-11.16-12.46-12a10.2,10.2,0,0,1-1.5-.4l-.49-.1c-.8-.2-1.7-.5-2.5-.7.7-6.38,4-7.37,7.18-7.37a17,17,0,0,1,4.29.59,4.09,4.09,0,0,0,1.89.2,13.17,13.17,0,0,0,11.56-9.67A3.6,3.6,0,0,0,94,6.4ZM74.83,40.19c-.7,6.28-3.09,26.11-3.29,27.71a3.26,3.26,0,0,1-.5.79L50.11,83.05,29,68.69a3.26,3.26,0,0,1-.5-.79L25.29,40.39c2-.5,3.89-1.1,5.78-1.7,6.58-2,12.86-3.79,19.14-3.79a20.74,20.74,0,0,1,2.49.1,9.63,9.63,0,0,1,1.69.2,124.15,124.15,0,0,1,14.86,3.49l.49.2q1,.3,2.4.6A22.12,22.12,0,0,1,74.83,40.19Z"/><g class="cls-4"><path class="cls-5" d="M36.06,59.67V47.61a1,1,0,0,1,.3-.73,1,1,0,0,1,.72-.31,1,1,0,0,1,.72.3,1,1,0,0,1,.3.72V59.67a.93.93,0,0,0,.31.7,1,1,0,0,0,.71.3h4.19a1,1,0,0,0,.72-.29,1,1,0,0,0,.3-.71V47.61a1,1,0,0,1,.3-.74,1,1,0,0,1,1.45,0,1,1,0,0,1,.3.74v12a3.11,3.11,0,0,1-3.07,3.09H39.12a3.07,3.07,0,0,1-3.06-3.07Z"/><path class="cls-5" d="M58.33,56.69l-3.26,5.56a.93.93,0,0,1-.86.49,1,1,0,0,1-.75-.32,1,1,0,0,1-.31-.69,1.16,1.16,0,0,1,.18-.6l3.81-6.48-3.74-6.4a1.49,1.49,0,0,1-.22-.7.89.89,0,0,1,.31-.68,1,1,0,0,1,.7-.3.91.91,0,0,1,.87.49l3.3,5.53,3.24-5.51a1,1,0,0,1,.86-.51,1.08,1.08,0,0,1,.75.29,1,1,0,0,1,.32.71,1.16,1.16,0,0,1-.16.56l-3.84,6.53,3.81,6.55a1,1,0,0,1,.15.52,1,1,0,0,1-.3.72,1,1,0,0,1-.72.29,1,1,0,0,1-.89-.49Z"/></g></g></svg>