<svg id="Layer_1" data-name="Layer 1" xmlns="http://www.w3.org/2000/svg" viewBox="0 0 50 50"><defs><style>.cls-1{fill:#59b4d9;}.cls-2{fill:#fff;}</style></defs><title>Artboard 1</title><path class="cls-1" d="M35.29,38.44A16.93,16.93,0,1,1,14.71,11.56,16.74,16.74,0,0,1,25,8.07a16.93,16.93,0,0,1,10.3,30.37"/><path class="cls-2" d="M32.18,28a3.66,3.66,0,0,0,5.11.68,2.18,2.18,0,0,0,.22-.21c1.63,1.15,2.9,2,3.54,2.44a13.42,13.42,0,0,0,.45-1.45c-.67-.5-1.72-1.3-3-2.37a3.62,3.62,0,0,0-5.19-4.44c-1.72-1.54-3.62-3.32-5.61-5.3,6.2-3.34,10.61-2.85,10.61-2.85A17.06,17.06,0,0,0,35.83,12,18,18,0,0,0,24.5,14.08h0c-1.55-1.62-3.13-3.35-4.73-5.22a16.81,16.81,0,0,0-2.25.91,36.21,36.21,0,0,0,4.58,5.8h0l0,0a32,32,0,0,0-4.71,4.07l-.58.63a5.08,5.08,0,0,0-2.78.19,12.28,12.28,0,0,1-1.17-7.34,18.28,18.28,0,0,0-1.83,2.22,10.88,10.88,0,0,0,.67,6.84,5.1,5.1,0,0,0,0,6.2,3.89,3.89,0,0,0,.38.43,25.1,25.1,0,0,0-1,5.94c.16.22.16.39.32.61a18.34,18.34,0,0,0,2.82,2.82,19,19,0,0,1,1.16-7.81A5,5,0,0,0,17.76,30c.44.39.89.77,1.38,1.16a28.35,28.35,0,0,0,4.93,3.15,3.35,3.35,0,0,0,5.39,3,3.42,3.42,0,0,0,.75-.82,29.94,29.94,0,0,0,6.64.69A12.12,12.12,0,0,0,39,34.5a18,18,0,0,1-8.33-.57,3.39,3.39,0,0,0-.61-1.34,3.34,3.34,0,0,0-4.48-.77,31.23,31.23,0,0,1-4.58-3c-.32-.25-.63-.51-.92-.76a5.12,5.12,0,0,0,.22-5.11c.19-.2.38-.39.59-.58a36,36,0,0,1,4.41-3.58s-.08-.11-.12-.15.08.08.12.08h0c2.12,2,4.36,3.84,6.48,5.5A3.69,3.69,0,0,0,32.18,28Z"/></svg>